<svg xmlns="http://www.w3.org/2000/svg" width="122.122" height="122.122" viewBox="0 0 122.122 122.122"><defs><style>.a{fill:#ff9c00;stroke:#ff9c00;}</style></defs><g transform="translate(0.5 0.5)"><path class="a" d="M110.476,0H10.645A10.658,10.658,0,0,0,0,10.645v99.831a10.658,10.658,0,0,0,10.645,10.645h99.831a10.658,10.658,0,0,0,10.645-10.645V10.645A10.658,10.658,0,0,0,110.476,0ZM7.1,10.645A3.553,3.553,0,0,1,10.645,7.1H28.624V28.388H7.1Zm106.928,99.831a3.553,3.553,0,0,1-3.548,3.548H10.645A3.553,3.553,0,0,1,7.1,110.476V35.485H114.025Zm0-82.088h-78.3V7.1h74.755a3.553,3.553,0,0,1,3.548,3.548Z"/><g transform="translate(92.497 14.194)"><path class="a" d="M401.882,60h-7.334a3.548,3.548,0,1,0,0,7.1h7.334a3.548,3.548,0,0,0,0-7.1Z" transform="translate(-391 -60)"/></g><g transform="translate(71.206 14.194)"><path class="a" d="M311.645,60h-7.1a3.548,3.548,0,0,0,0,7.1h7.1a3.548,3.548,0,0,0,0-7.1Z" transform="translate(-301 -60)"/></g><g transform="translate(49.915 14.194)"><path class="a" d="M221.645,60h-7.1a3.548,3.548,0,0,0,0,7.1h7.1a3.548,3.548,0,0,0,0-7.1Z" transform="translate(-211 -60)"/></g><g transform="translate(21.528 42.818)"><path class="a" d="M161.97,224.429v-4.4a10.658,10.658,0,0,0-10.645-10.645H133.582V201.68a10.645,10.645,0,1,0-7.1,0v7.707H108.742A10.658,10.658,0,0,0,98.1,220.033v4.4a10.645,10.645,0,1,0,7.1,0v-4.4a3.552,3.552,0,0,1,3.548-3.548h17.742v7.944a10.645,10.645,0,1,0,7.1,0v-7.944h17.742a3.553,3.553,0,0,1,3.549,3.548v4.4a10.645,10.645,0,1,0,7.1,0Zm-60.324,13.584a3.549,3.549,0,1,1,3.548-3.548A3.552,3.552,0,0,1,101.645,238.012Zm28.388,0a3.549,3.549,0,1,1,3.548-3.548A3.552,3.552,0,0,1,130.033,238.012Zm0-42.818a3.548,3.548,0,1,1,3.548-3.548A3.552,3.552,0,0,1,130.033,195.194Zm28.388,42.818a3.549,3.549,0,1,1,3.549-3.548A3.552,3.552,0,0,1,158.421,238.012Z" transform="translate(-91 -181)"/></g></g></svg>